{"title":"Geordie Shore Big Birthday Battle S01E04 1080P WEB-DL DD5 1 H 26","uid":14754122,"size":1598209550,"categoryP":"video","categoryS":"hd___tv_shows","magnet":"?xt=urn:btih:7d16faa6631ad421cfe39229f05e6e2e7b511494&amp;dn=Geordie+Shore+Big+Birthday+Battle+S01E04+1080P+WEB-DL+DD5+1+H+26&amp;tr=udp%3A%2F%2Ftracker.leechers-paradise.org%3A6969&amp;tr=udp%3A%2F%2Fzer0day.ch%3A1337&amp;tr=udp%3A%2F%2Fopen.demonii.com%3A1337&amp;tr=udp%3A%2F%2Ftracker.coppersurfer.tk%3A6969&amp;tr=udp%3A%2F%2Fexodus.desync.com%3A6969","seeders":9,"leechers":0,"uploader":"jmanwf","files":1,"time":1464784060,"description":"Description\r\n\r\nHolly's dream turns into reality as a blast from the past walks through the door! Charlotte's team vow to sabotage Gary as payback, but will they pull it off or will it backfire?!\r\n\r\n\r\n\r\n\r\nVideo\r\nID : 2\r\nFormat : AVC\r\nFormat/Info : Advanced Video Codec\r\nFormat profile :   \r\nFormat settings, CABAC : Yes\r\nFormat settings, ReFrames : 4 frames\r\nCodec ID : avc1\r\nCodec ID/Info : Advanced Video Coding\r\nDuration : 42mn 2s\r\nBit rate : 4 939 Kbps\r\nWidth : 1 920 pixels\r\nHeight : 1 080 pixels\r\nDisplay aspect ratio : 16:9\r\nFrame rate mode : Constant\r\nFrame rate : 25.000 fps\r\nColor space : YUV\r\nChroma subsampling : 4:2:0\r\nBit depth : 8 bits\r\nScan type : Progressive\r\nBits/(Pixel*Frame) : 0.095\r\nStream size : 1.45 GiB (97%)\r\nLanguage : English\r\nEncoded date : UTC 2016-06-01 05:36:04\r\nTagged date : UTC 2016-06-01 05:39:37\r\nColor range : Limited\r\nColor primaries : BT.709\r\nTransfer characteristics : BT.709\r\nMatrix coefficients : BT.709\r\n\r\nAudio\r\nID : 1\r\nFormat : AAC\r\nFormat/Info : Advanced Audio Codec\r\nFormat profile : LC\r\nCodec ID : 40\r\nDuration : 42mn 2s\r\nBit rate mode : Variable\r\nBit rate : 126 Kbps\r\nMaximum bit rate : 206 Kbps\r\nChannel(s) : 2 channels\r\nChannel positions : Front: L R\r\nSampling rate : 48.0 KHz\r\nFrame rate : 46.875 fps (1024 spf)\r\nCompression mode : Lossy\r\nStream size : 37.9 MiB (2%)\r\nLanguage : English\r\nDefault : Yes\r\nAlternate group : 1\r\nEncoded date : UTC 2016-06-01 05:36:04\r\nTagged date : UTC 2016-06-01 05:39:38","torrent":{"xt":"urn:btih:7d16faa6631ad421cfe39229f05e6e2e7b511494","amp;dn":"Geordie+Shore+Big+Birthday+Battle+S01E04+1080P+WEB-DL+DD5+1+H+26","amp;tr":["udp%3A%2F%2Ftracker.leechers-paradise.org%3A6969","udp%3A%2F%2Fzer0day.ch%3A1337","udp%3A%2F%2Fopen.demonii.com%3A1337","udp%3A%2F%2Ftracker.coppersurfer.tk%3A6969","udp%3A%2F%2Fexodus.desync.com%3A6969"],"infoHash":"7d16faa6631ad421cfe39229f05e6e2e7b511494","infoHashBuffer":{"type":"Buffer","data":[125,22,250,166,99,26,212,33,207,227,146,41,240,94,110,46,123,81,20,148]},"announce":[],"urlList":[]}}